<mxfile host="app.diagrams.net" agent="Mozilla/5.0 (X11; Linux x86_64) AppleWebKit/537.36 (KHTML, like Gecko) Chrome/127.0.0.0 Safari/537.36" version="24.9.0">
  <diagram name="Page-1" id="Z7HTDV-FtJWZfUqk9VfQ">
    <mxGraphModel dx="1008" dy="436" grid="1" gridSize="10" guides="1" tooltips="1" connect="1" arrows="1" fold="1" page="1" pageScale="1" pageWidth="827" pageHeight="1169" math="0" shadow="0">
      <root>
        <mxCell id="0" />
        <mxCell id="1" parent="0" />
        <mxCell id="mZyH8YiFX5K4pEQT5C_J-53" value="" style="html=1;shape=mxgraph.sysml.package;labelX=34.24;whiteSpace=wrap;align=center;" vertex="1" parent="1">
          <mxGeometry x="183" y="610" width="330" height="130" as="geometry" />
        </mxCell>
        <mxCell id="mZyH8YiFX5K4pEQT5C_J-54" value="Alt" style="html=1;align=left;verticalAlign=top;labelPosition=left;verticalLabelPosition=top;labelBackgroundColor=none;spacingLeft=5;spacingTop=-2;fontStyle=1;" connectable="0" vertex="1" parent="mZyH8YiFX5K4pEQT5C_J-53">
          <mxGeometry as="geometry" />
        </mxCell>
        <mxCell id="mZyH8YiFX5K4pEQT5C_J-59" value="[Data is valide]" style="text;html=1;align=center;verticalAlign=middle;resizable=0;points=[];autosize=1;strokeColor=none;fillColor=none;" vertex="1" parent="mZyH8YiFX5K4pEQT5C_J-53">
          <mxGeometry x="38" y="-5.2" width="100" height="30" as="geometry" />
        </mxCell>
        <mxCell id="mZyH8YiFX5K4pEQT5C_J-76" value="" style="edgeStyle=none;html=1;endArrow=open;verticalAlign=bottom;endSize=12;endFill=1;dashed=1;rounded=0;" edge="1" parent="mZyH8YiFX5K4pEQT5C_J-53">
          <mxGeometry relative="1" as="geometry">
            <mxPoint x="277" y="50.333333333333336" as="sourcePoint" />
            <mxPoint x="47" y="50.333333333333336" as="targetPoint" />
          </mxGeometry>
        </mxCell>
        <mxCell id="mZyH8YiFX5K4pEQT5C_J-77" value="Send sucess login message" style="text;html=1;align=center;verticalAlign=middle;resizable=0;points=[];autosize=1;strokeColor=none;fillColor=none;" vertex="1" parent="mZyH8YiFX5K4pEQT5C_J-53">
          <mxGeometry x="78" y="27.799999999999955" width="170" height="30" as="geometry" />
        </mxCell>
        <mxCell id="mZyH8YiFX5K4pEQT5C_J-79" value="" style="endArrow=none;html=1;rounded=0;" edge="1" parent="mZyH8YiFX5K4pEQT5C_J-53">
          <mxGeometry width="50" height="50" relative="1" as="geometry">
            <mxPoint y="70" as="sourcePoint" />
            <mxPoint x="331" y="70" as="targetPoint" />
          </mxGeometry>
        </mxCell>
        <mxCell id="mZyH8YiFX5K4pEQT5C_J-81" value="[else]" style="text;html=1;align=center;verticalAlign=middle;resizable=0;points=[];autosize=1;strokeColor=none;fillColor=none;" vertex="1" parent="mZyH8YiFX5K4pEQT5C_J-53">
          <mxGeometry x="37" y="60" width="50" height="30" as="geometry" />
        </mxCell>
        <mxCell id="mZyH8YiFX5K4pEQT5C_J-69" value="sign up : Block" style="shape=rect;html=1;whiteSpace=wrap;align=center;" vertex="1" parent="mZyH8YiFX5K4pEQT5C_J-53">
          <mxGeometry x="107" y="90" width="100" height="30" as="geometry" />
        </mxCell>
        <mxCell id="mZyH8YiFX5K4pEQT5C_J-43" value="u:User" style="shape=rect;html=1;whiteSpace=wrap;align=center;" vertex="1" parent="1">
          <mxGeometry x="180" y="470" width="100" height="30" as="geometry" />
        </mxCell>
        <mxCell id="mZyH8YiFX5K4pEQT5C_J-44" value="System" style="shape=rect;html=1;whiteSpace=wrap;align=center;" vertex="1" parent="1">
          <mxGeometry x="413" y="470" width="100" height="30" as="geometry" />
        </mxCell>
        <mxCell id="mZyH8YiFX5K4pEQT5C_J-45" value="" style="edgeStyle=none;dashed=1;html=1;endArrow=none;rounded=0;entryX=0.14;entryY=0.995;entryDx=0;entryDy=0;entryPerimeter=0;" edge="1" source="mZyH8YiFX5K4pEQT5C_J-43" parent="1" target="mZyH8YiFX5K4pEQT5C_J-53">
          <mxGeometry relative="1" as="geometry">
            <mxPoint x="230" y="720" as="targetPoint" />
          </mxGeometry>
        </mxCell>
        <mxCell id="mZyH8YiFX5K4pEQT5C_J-46" value="" style="edgeStyle=none;dashed=1;html=1;endArrow=none;rounded=0;entryX=0.849;entryY=1.014;entryDx=0;entryDy=0;entryPerimeter=0;" edge="1" source="mZyH8YiFX5K4pEQT5C_J-44" parent="1" target="mZyH8YiFX5K4pEQT5C_J-53">
          <mxGeometry relative="1" as="geometry">
            <mxPoint x="463" y="720" as="targetPoint" />
          </mxGeometry>
        </mxCell>
        <mxCell id="mZyH8YiFX5K4pEQT5C_J-47" value="Fill a form for login" style="edgeStyle=none;html=1;endArrow=open;verticalAlign=bottom;endSize=12;rounded=0;" edge="1" parent="1">
          <mxGeometry relative="1" as="geometry">
            <mxPoint x="230" y="540" as="sourcePoint" />
            <mxPoint x="460" y="540" as="targetPoint" />
          </mxGeometry>
        </mxCell>
        <mxCell id="mZyH8YiFX5K4pEQT5C_J-51" value="Check if data is valide" style="edgeStyle=none;html=1;endArrow=open;verticalAlign=bottom;endSize=12;rounded=0;" edge="1" parent="1">
          <mxGeometry x="0.1579" y="17" relative="1" as="geometry">
            <mxPoint x="463" y="550" as="sourcePoint" />
            <mxPoint x="463" y="600" as="targetPoint" />
            <Array as="points">
              <mxPoint x="533" y="550" />
              <mxPoint x="533" y="600" />
            </Array>
            <mxPoint as="offset" />
          </mxGeometry>
        </mxCell>
      </root>
    </mxGraphModel>
  </diagram>
</mxfile>
